<svg version="1.2" xmlns="http://www.w3.org/2000/svg" viewBox="0 0 300 309" width="300" height="309"><style>.a{fill:#ff2d20}</style><path fill-rule="evenodd" class="a" d="m299.7 70.1q0 0.1 0.1 0.3 0 0.1 0 0.3 0 0.2 0 0.3 0.1 0.2 0.1 0.3v66.3q0 0.6-0.2 1.3-0.2 0.6-0.5 1.1-0.3 0.6-0.8 1-0.4 0.5-1 0.8l-55.6 32v63.5c0 1.7-0.9 3.3-2.4 4.2l-116 66.8c-0.3 0.2-0.6 0.3-0.8 0.4-0.1 0-0.3 0.1-0.4 0.1q-0.3 0.1-0.6 0.1-0.3 0.1-0.6 0.1-0.3 0-0.6-0.1-0.3 0-0.6-0.1-0.2-0.1-0.4-0.1c-0.3-0.1-0.6-0.2-0.8-0.4l-116-66.8q-0.6-0.3-1-0.8-0.5-0.4-0.8-1-0.3-0.5-0.5-1.1-0.1-0.7-0.1-1.3v-198.8q0-0.7 0.1-1.3c0.1-0.1 0.1-0.3 0.2-0.4q0.1-0.4 0.3-0.7c0.1-0.2 0.2-0.3 0.3-0.5q0.2-0.3 0.5-0.5c0.1-0.2 0.3-0.3 0.4-0.4 0.2-0.1 0.4-0.3 0.6-0.4l58-33.4q0.5-0.4 1.1-0.5 0.7-0.2 1.3-0.2 0.6 0 1.2 0.2 0.7 0.1 1.2 0.5l58 33.4q0.3 0.2 0.6 0.4c0.1 0.1 0.3 0.2 0.4 0.4 0.2 0.1 0.3 0.3 0.5 0.5 0.1 0.2 0.2 0.3 0.3 0.5 0.1 0.2 0.2 0.5 0.3 0.7 0 0.1 0.1 0.3 0.2 0.4q0 0.2 0 0.3 0.1 0.2 0.1 0.3 0 0.2 0 0.4 0 0.1 0 0.3v124.2l48.4-27.9v-63.5q0-0.6 0.1-1.2c0.1-0.2 0.2-0.3 0.2-0.4 0.1-0.3 0.2-0.6 0.3-0.8 0.1-0.1 0.2-0.3 0.3-0.4 0.2-0.2 0.3-0.4 0.5-0.6 0.1-0.1 0.3-0.2 0.5-0.3 0.1-0.2 0.3-0.3 0.5-0.5l58-33.4q0.6-0.3 1.2-0.5 0.6-0.1 1.2-0.1 0.7 0 1.3 0.1 0.6 0.2 1.1 0.5l58 33.4c0.2 0.2 0.4 0.3 0.6 0.4 0.1 0.2 0.3 0.3 0.4 0.4 0.2 0.2 0.3 0.4 0.5 0.6 0.1 0.1 0.2 0.3 0.3 0.4 0.1 0.2 0.2 0.5 0.3 0.8 0.1 0.1 0.1 0.2 0.2 0.4zm-9.5 64.7v-55.1l-20.3 11.7-28.1 16.1v55.2c0 0 48.4-27.9 48.4-27.9zm-58 99.7v-55.1l-27.6 15.7-78.8 45v55.7zm-222.3-187.7v187.7l106.3 61.2v-55.6l-55.5-31.5h-0.1c-0.2-0.1-0.3-0.3-0.5-0.4-0.2-0.1-0.3-0.2-0.5-0.3v-0.1c-0.1-0.1-0.2-0.3-0.4-0.5-0.1-0.1-0.2-0.3-0.3-0.4v-0.1c-0.1-0.1-0.2-0.4-0.3-0.6-0.1-0.1-0.2-0.3-0.2-0.5q-0.1-0.4-0.1-0.7c0-0.2-0.1-0.4-0.1-0.6v-129.7l-28-16.2c0 0-20.3-11.7-20.3-11.7zm53.1-36.2q0 0 0 0zm-48.3 27.9l48.3 27.8 48.4-27.9c0 0-48.4-27.8-48.4-27.8zm73.5 145.9l28-16.1v-121.4l-20.3 11.7-28 16.1v121.4zm148.9-140.9l-48.3 27.9 48.3 27.8 48.3-27.8zm-4.8 64l-28.1-16.1-20.3-11.7v55.1l28.1 16.1 20.3 11.7zm-111.2 124.2l70.9-40.5 35.4-20.2-48.3-27.8-55.6 32-50.7 29.2z"/></svg>